REM DIRINDEX 1\2,1\3
REM DIRNAME cjc071,folder01,folder02
TITLE ""
FILE "Disk1Track02.mp3" MP3
  TRACK 01 AUDIO
    TITLE "2:cjc071_0012"
    INDEX 01 00:00:00
  TRACK 02 AUDIO
    TITLE "2:cjc071_0013"
    INDEX 01 00:02:51
  TRACK 03 AUDIO
    TITLE "2:cjc071_0014"
    INDEX 01 00:04:74
  TRACK 04 AUDIO
    TITLE "2:cjc071_0015"
    INDEX 01 00:07:43
  TRACK 05 AUDIO
    TITLE "2:cjc071_0016"
    INDEX 01 00:12:56
  TRACK 06 AUDIO
    TITLE "0:"
    INDEX 01 00:19:36
